<svg width="1200" height="900" viewBox="0 0 1200 900" fill="none" xmlns="http://www.w3.org/2000/svg">
  <rect width="1200" height="900" rx="48" fill="#F7F0E6"/>
  <rect x="72" y="72" width="1056" height="756" rx="36" fill="#14292C"/>
  <circle cx="924" cy="230" r="132" fill="#26A69A" opacity="0.22"/>
  <circle cx="278" cy="702" r="168" fill="#F09867" opacity="0.22"/>
  <rect x="166" y="136" width="390" height="528" rx="32" fill="#1E3A3E"/>
  <rect x="204" y="174" width="314" height="452" rx="26" fill="#E7D9C7"/>
  <circle cx="361" cy="326" r="94" fill="#F2B28A"/>
  <path d="M279 324C279 277.608 316.608 240 363 240V240C409.392 240 447 277.608 447 324V382H279V324Z" fill="#14292C"/>
  <path d="M252 570C252 491.023 316.023 427 395 427H331C409.977 427 474 491.023 474 570V627H252V570Z" fill="#26A69A"/>
  <rect x="624" y="182" width="400" height="170" rx="26" fill="#1E3A3E"/>
  <text x="664" y="238" fill="#F7F0E6" font-family="Space Grotesk, sans-serif" font-size="24" font-weight="700">Munisa Polatova</text>
  <text x="664" y="288" fill="#9CB2B0" font-family="Manrope, sans-serif" font-size="24">Cybersecurity Student</text>
  <rect x="624" y="402" width="400" height="180" rx="26" fill="#F7F0E6"/>
  <text x="664" y="462" fill="#26A69A" font-family="Space Grotesk, sans-serif" font-size="24" font-weight="700">Security + Web</text>
  <text x="664" y="516" fill="#5A6E70" font-family="Manrope, sans-serif" font-size="22">Frontend practice</text>
  <text x="664" y="550" fill="#5A6E70" font-family="Manrope, sans-serif" font-size="22">Cybersecurity learning</text>
  <text x="664" y="584" fill="#5A6E70" font-family="Manrope, sans-serif" font-size="22">Steady growth</text>
  <rect x="624" y="632" width="196" height="96" rx="24" fill="#26A69A"/>
  <rect x="844" y="632" width="180" height="96" rx="24" fill="#F09867"/>
  <text x="668" y="690" fill="#14292C" font-family="Space Grotesk, sans-serif" font-size="26" font-weight="700">1st year</text>
  <text x="879" y="690" fill="#14292C" font-family="Space Grotesk, sans-serif" font-size="24" font-weight="700">Cybersecurity</text>
</svg>
