<svg xmlns="http://www.w3.org/2000/svg" viewBox="0 0 1200 900" fill="none">
  <rect width="1200" height="900" fill="#FFF8F2"/>
  <circle cx="1030" cy="180" r="190" fill="#CC7036" fill-opacity=".12"/>
  <circle cx="210" cy="720" r="210" fill="#26A69A" fill-opacity=".10"/>
  <rect x="110" y="110" width="980" height="680" rx="36" fill="#FFFDF9" stroke="#E4D6C8" stroke-width="6"/>
  <rect x="170" y="170" width="386" height="560" rx="28" fill="#F7F0E6"/>
  <circle cx="363" cy="316" r="102" fill="#14292C"/>
  <circle cx="318" cy="316" r="58" fill="#FFFDF9"/>
  <circle cx="408" cy="316" r="58" fill="#FFFDF9"/>
  <rect x="262" y="460" width="202" height="20" rx="10" fill="#14292C" fill-opacity=".2"/>
  <rect x="226" y="500" width="274" height="18" rx="9" fill="#14292C" fill-opacity=".12"/>
  <rect x="630" y="180" width="360" height="252" rx="26" fill="#14292C"/>
  <text x="682" y="286" fill="#FFFDF9" font-family="Georgia, serif" font-size="48" font-weight="700">M</text>
  <text x="740" y="286" fill="#FFFDF9" font-family="Manrope, Arial, sans-serif" font-size="40" font-weight="700">Monsy</text>
  <text x="682" y="338" fill="#C6E4DE" font-family="Manrope, Arial, sans-serif" font-size="20" font-weight="600">Logo direction and starter identity</text>
  <rect x="630" y="470" width="360" height="58" rx="29" fill="#26A69A"/>
  <rect x="630" y="554" width="360" height="58" rx="29" fill="#CC7036"/>
  <rect x="630" y="638" width="360" height="58" rx="29" fill="#E8D3C4"/>
  <text x="630" y="762" fill="#14292C" font-family="Manrope, Arial, sans-serif" font-size="24" font-weight="700">Logo Design</text>
  <text x="630" y="796" fill="#14292C" fill-opacity=".6" font-family="Manrope, Arial, sans-serif" font-size="20" font-weight="600">Simple brand mark, palette, and presentation mockups</text>
</svg>
