<svg xmlns="http://www.w3.org/2000/svg" viewBox="0 0 1600 1000" fill="none">
  <rect width="1600" height="1000" fill="#FFF8F2"/>
  <rect x="96" y="86" width="1408" height="828" rx="34" fill="#FFFDF9" stroke="#E4D6C8" stroke-width="6"/>
  <rect x="150" y="146" width="456" height="708" rx="28" fill="#F7F0E6"/>
  <circle cx="378" cy="350" r="130" fill="#14292C"/>
  <circle cx="322" cy="350" r="76" fill="#FFFDF9"/>
  <circle cx="434" cy="350" r="76" fill="#FFFDF9"/>
  <text x="254" y="564" fill="#14292C" font-family="Georgia, serif" font-size="70" font-weight="700">M</text>
  <text x="322" y="564" fill="#14292C" font-family="Manrope, Arial, sans-serif" font-size="56" font-weight="700">Monsy</text>
  <text x="254" y="624" fill="#14292C" fill-opacity=".6" font-family="Manrope, Arial, sans-serif" font-size="28" font-weight="600">Identity board and primary mark study</text>
  <rect x="676" y="152" width="270" height="188" rx="24" fill="#14292C"/>
  <rect x="988" y="152" width="270" height="188" rx="24" fill="#26A69A"/>
  <rect x="1300" y="152" width="112" height="188" rx="24" fill="#CC7036"/>
  <rect x="676" y="392" width="666" height="94" rx="26" fill="#EFE5D8"/>
  <rect x="724" y="432" width="210" height="18" rx="9" fill="#14292C" fill-opacity=".2"/>
  <rect x="976" y="432" width="244" height="18" rx="9" fill="#14292C" fill-opacity=".12"/>
  <rect x="676" y="540" width="736" height="270" rx="28" fill="#FFF8F2" stroke="#E4D6C8" stroke-width="4"/>
  <text x="724" y="638" fill="#14292C" font-family="Manrope, Arial, sans-serif" font-size="30" font-weight="700">Color palette, wordmark, and usage balance</text>
  <text x="724" y="690" fill="#14292C" fill-opacity=".62" font-family="Manrope, Arial, sans-serif" font-size="24" font-weight="600">Presentation sheet for the startup logo concept</text>
</svg>
