<svg width="800" height="600" viewBox="0 0 800 600" fill="none" xmlns="http://www.w3.org/2000/svg">
  <rect width="800" height="600" fill="#ffffff"/>
  <rect x="0" y="0" width="800" height="80" fill="#1f2937"/>
  <text x="50" y="50" fill="#ffffff" font-family="Arial, sans-serif" font-size="24" font-weight="bold">Portfolio</text>
  <rect x="600" y="20" width="80" height="40" fill="#3b82f6" rx="20"/>
  <text x="640" y="45" text-anchor="middle" fill="#ffffff" font-family="Arial, sans-serif" font-size="14">Contact</text>
  <rect x="50" y="100" width="700" height="480" fill="#f9fafb"/>
  <text x="400" y="140" text-anchor="middle" fill="#1f2937" font-family="Arial, sans-serif" font-size="28" font-weight="bold">My Projects</text>
  <rect x="100" y="180" width="250" height="200" fill="#ffffff" stroke="#e5e7eb" stroke-width="1" rx="8"/>
  <rect x="100" y="180" width="250" height="120" fill="#f3f4f6" rx="8"/>
  <text x="225" y="240" text-anchor="middle" fill="#1f2937" font-family="Arial, sans-serif" font-size="18" font-weight="bold">Project 1</text>
  <text x="225" y="265" text-anchor="middle" fill="#6b7280" font-family="Arial, sans-serif" font-size="14">Description of project</text>
  <rect x="150" y="320" width="80" height="30" fill="#3b82f6" rx="4"/>
  <text x="190" y="340" text-anchor="middle" fill="#ffffff" font-family="Arial, sans-serif" font-size="12">Live Demo</text>
  <rect x="450" y="180" width="250" height="200" fill="#ffffff" stroke="#e5e7eb" stroke-width="1" rx="8"/>
  <rect x="450" y="180" width="250" height="120" fill="#f3f4f6" rx="8"/>
  <text x="575" y="240" text-anchor="middle" fill="#1f2937" font-family="Arial, sans-serif" font-size="18" font-weight="bold">Project 2</text>
  <text x="575" y="265" text-anchor="middle" fill="#6b7280" font-family="Arial, sans-serif" font-size="14">Description of project</text>
  <rect x="500" y="320" width="80" height="30" fill="#3b82f6" rx="4"/>
  <text x="540" y="340" text-anchor="middle" fill="#ffffff" font-family="Arial, sans-serif" font-size="12">Live Demo</text>
</svg>