<svg width="1200" height="900" viewBox="0 0 1200 900" fill="none" xmlns="http://www.w3.org/2000/svg">
  <rect width="1200" height="900" rx="48" fill="#F7F0E6"/>
  <rect x="70" y="70" width="1060" height="760" rx="36" fill="#14292C"/>
  <rect x="130" y="130" width="940" height="640" rx="30" fill="#1E3A3E"/>
  <rect x="190" y="176" width="356" height="548" rx="28" fill="#F7F0E6"/>
  <rect x="580" y="176" width="430" height="194" rx="28" fill="#26A69A"/>
  <rect x="580" y="402" width="430" height="144" rx="28" fill="#F09867"/>
  <rect x="580" y="578" width="430" height="146" rx="28" fill="#F7F0E6"/>
  <circle cx="368" cy="328" r="82" fill="#F09867"/>
  <rect x="242" y="452" width="254" height="18" rx="9" fill="#14292C"/>
  <rect x="242" y="490" width="198" height="16" rx="8" fill="#5A6E70"/>
  <rect x="242" y="522" width="170" height="16" rx="8" fill="#5A6E70"/>
  <text x="608" y="274" fill="#14292C" font-family="Space Grotesk, sans-serif" font-size="44" font-weight="700">Signal Studio</text>
  <text x="608" y="326" fill="#17393C" font-family="Manrope, sans-serif" font-size="24">Editorial agency portfolio</text>
  <text x="610" y="486" fill="#14292C" font-family="Manrope, sans-serif" font-size="24">Story-driven sections</text>
  <text x="610" y="648" fill="#14292C" font-family="Manrope, sans-serif" font-size="24">Reusable marketing system</text>
</svg>
