<svg xmlns="http://www.w3.org/2000/svg" viewBox="0 0 1200 900" fill="none">
  <rect width="1200" height="900" fill="#F7F0E6"/>
  <circle cx="1030" cy="130" r="170" fill="#26A69A" fill-opacity=".12"/>
  <circle cx="160" cy="760" r="220" fill="#CC7036" fill-opacity=".10"/>
  <rect x="106" y="118" width="988" height="664" rx="34" fill="#FFF9F3" stroke="#D1C1AF" stroke-width="6"/>
  <rect x="106" y="118" width="988" height="78" rx="34" fill="#EFE5D8"/>
  <circle cx="162" cy="157" r="11" fill="#CC7036"/>
  <circle cx="198" cy="157" r="11" fill="#26A69A"/>
  <circle cx="234" cy="157" r="11" fill="#14292C" fill-opacity=".35"/>
  <rect x="154" y="244" width="446" height="238" rx="28" fill="#14292C"/>
  <rect x="629" y="244" width="313" height="26" rx="13" fill="#26A69A" fill-opacity=".24"/>
  <rect x="629" y="292" width="237" height="18" rx="9" fill="#14292C" fill-opacity=".18"/>
  <rect x="629" y="325" width="286" height="18" rx="9" fill="#14292C" fill-opacity=".12"/>
  <rect x="629" y="358" width="258" height="18" rx="9" fill="#14292C" fill-opacity=".12"/>
  <rect x="629" y="423" width="134" height="44" rx="22" fill="#26A69A"/>
  <rect x="154" y="530" width="237" height="182" rx="24" fill="#EFE5D8"/>
  <rect x="432" y="530" width="237" height="182" rx="24" fill="#EFE5D8"/>
  <rect x="710" y="530" width="237" height="182" rx="24" fill="#EFE5D8"/>
  <rect x="181" y="560" width="72" height="72" rx="20" fill="#26A69A" fill-opacity=".2"/>
  <rect x="459" y="560" width="72" height="72" rx="20" fill="#CC7036" fill-opacity=".22"/>
  <rect x="737" y="560" width="72" height="72" rx="20" fill="#14292C" fill-opacity=".14"/>
  <rect x="181" y="650" width="143" height="14" rx="7" fill="#14292C" fill-opacity=".2"/>
  <rect x="459" y="650" width="138" height="14" rx="7" fill="#14292C" fill-opacity=".2"/>
  <rect x="737" y="650" width="129" height="14" rx="7" fill="#14292C" fill-opacity=".2"/>
  <text x="154" y="330" fill="#FFF9F3" font-family="Manrope, Arial, sans-serif" font-size="58" font-weight="800">Website</text>
  <text x="154" y="394" fill="#FFF9F3" font-family="Manrope, Arial, sans-serif" font-size="58" font-weight="800">Project</text>
  <text x="154" y="438" fill="#A8CFC8" font-family="Manrope, Arial, sans-serif" font-size="24" font-weight="600">HTML  CSS  JS</text>
  <text x="629" y="516" fill="#14292C" font-family="Manrope, Arial, sans-serif" font-size="22" font-weight="700">Single-page portfolio with anchor navigation</text>
</svg>
