<svg xmlns="http://www.w3.org/2000/svg" viewBox="0 0 1600 1000" fill="none">
  <rect width="1600" height="1000" fill="#FFF9F3"/>
  <rect x="88" y="84" width="1424" height="832" rx="34" fill="#F7F0E6" stroke="#D1C1AF" stroke-width="6"/>
  <rect x="88" y="84" width="1424" height="86" rx="34" fill="#14292C"/>
  <rect x="140" y="117" width="148" height="20" rx="10" fill="#26A69A"/>
  <rect x="1060" y="117" width="92" height="18" rx="9" fill="#FFF9F3" fill-opacity=".4"/>
  <rect x="1180" y="117" width="92" height="18" rx="9" fill="#FFF9F3" fill-opacity=".4"/>
  <rect x="1300" y="117" width="92" height="18" rx="9" fill="#FFF9F3" fill-opacity=".4"/>
  <rect x="144" y="214" width="1312" height="232" rx="30" fill="#26A69A"/>
  <rect x="200" y="286" width="348" height="26" rx="13" fill="#FFF9F3"/>
  <rect x="200" y="330" width="510" height="68" rx="20" fill="#FFF9F3" fill-opacity=".92"/>
  <rect x="1046" y="260" width="320" height="144" rx="24" fill="#FFF9F3" fill-opacity=".22"/>
  <rect x="144" y="488" width="404" height="352" rx="28" fill="#FFFDF9"/>
  <rect x="598" y="488" width="404" height="352" rx="28" fill="#FFFDF9"/>
  <rect x="1052" y="488" width="404" height="352" rx="28" fill="#FFFDF9"/>
  <rect x="184" y="530" width="112" height="112" rx="24" fill="#26A69A" fill-opacity=".18"/>
  <rect x="638" y="530" width="112" height="112" rx="24" fill="#CC7036" fill-opacity=".2"/>
  <rect x="1092" y="530" width="112" height="112" rx="24" fill="#14292C" fill-opacity=".12"/>
  <rect x="184" y="674" width="228" height="18" rx="9" fill="#14292C" fill-opacity=".2"/>
  <rect x="184" y="708" width="172" height="16" rx="8" fill="#14292C" fill-opacity=".12"/>
  <rect x="638" y="674" width="228" height="18" rx="9" fill="#14292C" fill-opacity=".2"/>
  <rect x="638" y="708" width="172" height="16" rx="8" fill="#14292C" fill-opacity=".12"/>
  <rect x="1092" y="674" width="228" height="18" rx="9" fill="#14292C" fill-opacity=".2"/>
  <rect x="1092" y="708" width="172" height="16" rx="8" fill="#14292C" fill-opacity=".12"/>
  <text x="144" y="954" fill="#14292C" font-family="Manrope, Arial, sans-serif" font-size="30" font-weight="700">Desktop layout study for the original portfolio website</text>
</svg>
